<?xml version="1.0" standalone="no"?><!DOCTYPE svg PUBLIC "-//W3C//DTD SVG 1.1//EN" "http://www.w3.org/Graphics/SVG/1.1/DTD/svg11.dtd"><svg class="icon" width="200px" height="200.00px" viewBox="0 0 1024 1024" version="1.1" xmlns="http://www.w3.org/2000/svg"><path fill="#2c2c2c" d="M1021.248 172.8 928 544c0 4.448-0.896 8.64-2.496 12.448-3.264 7.68-9.376 13.824-17.024 17.056C904.64 575.136 900.416 576 896 576L288 576l25.6 128L864 704c17.696 0 32 14.304 32 32s-14.304 32-32 32L288 768c-17.696 0-32-14.304-32-32L134.4 128 32 128C14.336 128 0 113.664 0 96s14.336-32 32-32l128 0c17.696 0 32 14.336 32 32l6.4 32L992 128c17.696 0 32 14.336 32 32C1024 164.576 1022.976 168.864 1021.248 172.8zM275.2 512 384 512 384 192 211.2 192 275.2 512zM576 192l-160 0 0 320 160 0L576 192zM768 192l-160 0 0 320 160 0L768 192zM800 192l0 320 72.096 0 81.056-320L800 192zM352 832c53.024 0 96 43.008 96 96s-42.976 96-96 96-96-43.008-96-96S298.976 832 352 832zM352 960c17.696 0 32-14.304 32-32s-14.304-32-32-32-32 14.304-32 32S334.304 960 352 960zM800 832c53.024 0 96 43.008 96 96s-42.976 96-96 96-96-43.008-96-96S746.976 832 800 832zM800 960c17.696 0 32-14.304 32-32s-14.304-32-32-32-32 14.304-32 32S782.304 960 800 960z" /></svg>